<svg width="25" height="24" viewBox="0 0 25 24" fill="none" xmlns="http://www.w3.org/2000/svg">
<path d="M17.5001 16.32H6.50006C6.35006 16.32 6.20006 16.224 6.10006 16.128C6.00006 16.032 6.00006 15.84 6.05006 15.696L7.00006 13.392L6.05006 4.8H3.00006V3.84H6.50006C6.75006 3.84 6.95006 4.032 7.00006 4.272L8.00006 13.392C8.00006 13.488 8.00006 13.536 7.95006 13.632L7.25006 15.36H18.0001L17.5001 16.32Z" fill="black"/>
<path d="M7.60006 13.92L7.40006 12.96L19.0001 10.656V6.72001H7.00006V5.76001H19.5001C19.8001 5.76001 20.0001 5.95201 20.0001 6.24001V11.04C20.0001 11.28 19.8501 11.472 19.6001 11.52L7.60006 13.92ZM18.0001 19.2C16.9001 19.2 16.0001 18.336 16.0001 17.28C16.0001 16.224 16.9001 15.36 18.0001 15.36C19.1001 15.36 20.0001 16.224 20.0001 17.28C20.0001 18.336 19.1001 19.2 18.0001 19.2ZM18.0001 16.32C17.4501 16.32 17.0001 16.752 17.0001 17.28C17.0001 17.808 17.4501 18.24 18.0001 18.24C18.5501 18.24 19.0001 17.808 19.0001 17.28C19.0001 16.752 18.5501 16.32 18.0001 16.32ZM6.00006 19.2C4.90006 19.2 4.00006 18.336 4.00006 17.28C4.00006 16.224 4.90006 15.36 6.00006 15.36C7.10006 15.36 8.00006 16.224 8.00006 17.28C8.00006 18.336 7.10006 19.2 6.00006 19.2ZM6.00006 16.32C5.45006 16.32 5.00006 16.752 5.00006 17.28C5.00006 17.808 5.45006 18.24 6.00006 18.24C6.55006 18.24 7.00006 17.808 7.00006 17.28C7.00006 16.752 6.55006 16.32 6.00006 16.32Z" fill="black"/>
</svg>
